<?xml version="1.0" encoding="UTF-8"?>
<svg width="24px" height="24px" viewBox="0 0 24 24" version="1.1" xmlns="http://www.w3.org/2000/svg" xmlns:xlink="http://www.w3.org/1999/xlink">
    <title>Instagram Icon</title>
    <g id="Instagram-Icon" stroke="none" stroke-width="1" fill="none" fill-rule="evenodd">
        <g id="Instagram-Glyph-Black-Logo.wine" transform="translate(12.000000, 12.000000) scale(-1, 1) translate(-12.000000, -12.000000) translate(4.000000, 4.000000)" fill="#FFFFFF" fill-rule="nonzero">
            <path d="M8.00002382,0 C5.82733839,0 5.55489529,0.00921719352 4.70160229,0.0481342328 C3.85009557,0.086979821 3.26855496,0.222236777 2.75968014,0.419965823 C2.23360941,0.624411273 1.78746867,0.897973766 1.34273312,1.34270931 C0.897973766,1.78744485 0.624411273,2.23363323 0.41998964,2.75970395 C0.22221296,3.26855496 0.0870036381,3.85009557 0.0481104158,4.70160229 C0.00919337648,5.55489529 0,5.82733839 0,8.00002382 C0,10.1726616 0.00919337648,10.4451047 0.0481104158,11.2983977 C0.0870036381,12.1499044 0.22221296,12.731445 0.41998964,13.240296 C0.62443509,13.7663668 0.897997583,14.2125075 1.34273312,14.6572907 C1.78749248,15.1020262 2.23360941,15.3755887 2.75968014,15.5800342 C3.26855496,15.7777632 3.85009557,15.9129964 4.70160229,15.9518658 C5.55489529,15.9907828 5.82733839,16 8.00002382,16 C10.1726616,16 10.4451047,15.9907828 11.2983977,15.9518658 C12.1499044,15.9130202 12.731445,15.7777632 13.240296,15.5800342 C13.7663668,15.3755887 14.2125075,15.1020262 14.6572907,14.6572907 C15.1020262,14.2125075 15.3755887,13.7663668 15.5800342,13.240296 C15.7777632,12.731445 15.9130202,12.1499044 15.9518658,11.2983977 C15.9907828,10.4451047 16,10.1726616 16,8.00002382 C16,5.82733839 15.9907828,5.55489529 15.9518658,4.70160229 C15.9130202,3.85009557 15.7777632,3.26855496 15.5800342,2.75970395 C15.3755887,2.23363323 15.1020262,1.78744485 14.6572907,1.34270931 C14.2125075,0.897973766 13.7663668,0.624411273 13.240296,0.419965823 C12.731445,0.222236777 12.1499044,0.086979821 11.2983977,0.0481342328 C10.4451047,0.00921719352 10.1726616,0 8.00002382,0 Z M8.00002382,1.44143093 C10.1360786,1.44143093 10.3891109,1.44960017 11.2326865,1.4880885 C12.0126945,1.52364734 12.4362805,1.65397417 12.7181551,1.76353254 C13.0916063,1.90867357 13.3580951,2.08201397 13.6380168,2.36195943 C13.917986,2.64190489 14.0913264,2.90841754 14.2364675,3.28182105 C14.3460258,3.56371951 14.4763527,3.98732934 14.5119115,4.7673135 C14.5503998,5.61088915 14.5585691,5.86392136 14.5585691,8 C14.5585691,10.1360786 14.5503998,10.3891109 14.5119115,11.2326865 C14.4763527,12.0126945 14.3460258,12.4362805 14.2364675,12.7181551 C14.0913264,13.0916063 13.917986,13.3580951 13.6380168,13.6380168 C13.3580951,13.917986 13.0915825,14.0913264 12.7181789,14.2364675 C12.4362805,14.3460258 12.0126707,14.4763527 11.2326865,14.5119115 C10.3892538,14.5503998 10.1362454,14.5585691 8,14.5585691 C5.86375464,14.5585691 5.61079388,14.5503998 4.7673135,14.5118877 C3.98730552,14.4763527 3.56371951,14.3460258 3.28184487,14.2364675 C2.90839372,14.0913264 2.64190489,13.917986 2.36198324,13.6380168 C2.08203779,13.3580951 1.90867357,13.0915825 1.76353254,12.7181789 C1.65397417,12.4362805 1.52367116,12.0126707 1.4880885,11.2326865 C1.44960017,10.3891109 1.44143093,10.1360786 1.44143093,8 C1.44143093,5.86392136 1.44960017,5.61088915 1.4880885,4.7673135 C1.52367116,3.98730552 1.65397417,3.56371951 1.76353254,3.28184487 C1.90867357,2.90839372 2.08203779,2.64190489 2.36195943,2.36198324 C2.64190489,2.08201397 2.90841754,1.90867357 3.28182105,1.76353254 C3.56371951,1.65397417 3.98732934,1.52364734 4.7673135,1.4880885 C5.61088915,1.44960017 5.86392136,1.44143093 8,1.44143093" id="Shape"></path>
            <path d="M7.83156949,10.7792497 C6.38963322,10.7792497 5.22075032,9.61036678 5.22075032,8.16847715 C5.22075032,6.72654088 6.38963322,5.55765798 7.83156949,5.55765798 C9.27345912,5.55765798 10.442342,6.72654088 10.442342,8.16847715 C10.442342,9.61036678 9.27345912,10.7792497 7.83156949,10.7792497 Z M7.83156949,4.14643147 C5.61023027,4.14643147 3.80952381,5.94713793 3.80952381,8.16847715 C3.80952381,10.3897697 5.61023027,12.1904762 7.83156949,12.1904762 C10.0528621,12.1904762 11.8535685,10.3897697 11.8535685,8.16847715 C11.8535685,5.94713793 10.0528621,4.14643147 7.83156949,4.14643147 M12.952381,3.98751955 C12.952381,4.50662406 12.5315617,4.92739673 12.0124805,4.92739673 C11.4934226,4.92739673 11.0726033,4.50662406 11.0726033,3.98751955 C11.0726033,3.46843835 11.4934226,3.04761905 12.0124805,3.04761905 C12.5315617,3.04761905 12.952381,3.46843835 12.952381,3.98751955" id="Shape"></path>
        </g>
    </g>
</svg>