<?xml version="1.0" encoding="UTF-8"?>
<svg width="24px" height="24px" viewBox="0 0 24 24" version="1.1" xmlns="http://www.w3.org/2000/svg" xmlns:xlink="http://www.w3.org/1999/xlink">
    <title>Twitter Icon</title>
    <g id="Twitter-Icon" stroke="none" stroke-width="1" fill="none" fill-rule="evenodd">
        <g id="Twitter-Logo.wine" transform="translate(4.000000, 5.000000)" fill="#FFFFFF" fill-rule="nonzero">
            <path d="M5.03182508,13 C11.0698648,13 14.3718339,7.99903382 14.3718339,3.66237252 C14.3718339,3.52034353 14.3689346,3.37895867 14.3625455,3.23816425 C15.0049905,2.7734192 15.5594729,2.19795723 16,1.5387547 C15.41182,1.80016103 14.778862,1.97611379 14.1149246,2.0554482 C14.7926068,1.64911433 15.312922,1.00644122 15.5583952,0.240257649 C14.9139742,0.622451256 14.2090217,0.891860209 13.4739131,1.03687601 C12.8748876,0.39898014 12.0221205,0 11.0777573,0 C9.26494946,0 7.79490208,1.46972625 7.79490208,3.28137413 C7.79490208,3.53891573 7.82373391,3.78942566 7.8800553,4.02968331 C5.15176977,3.89243156 2.73252708,2.58652711 1.11343472,0.600805153 C0.821825748,1.10160261 0.668432921,1.67082108 0.668930618,2.25029522 C0.668930618,3.38888889 1.24846646,4.39404187 2.12974322,4.98207193 C1.60846233,4.96617422 1.09861479,4.82540824 0.643051771,4.57160494 C0.642568556,4.58539989 0.642568556,4.59881911 0.642568556,4.61352657 C0.642568556,6.20289855 1.77409699,7.52989801 3.27614394,7.83059581 C2.99403442,7.90741956 2.70293268,7.94626655 2.41054482,7.94610843 C2.20347994,7.94596729 1.99689756,7.92614288 1.79358666,7.88690284 C2.21151394,9.19087493 3.42336344,10.1397746 4.86012268,10.1662909 C3.73659414,11.0466989 2.32125743,11.5710682 0.783023047,11.5710682 C0.518382304,11.5710682 0.256962994,11.5560386 0,11.5256575 C1.45281271,12.4566291 3.17789023,12.999839 5.03198615,12.999839" id="Path"></path>
        </g>
    </g>
</svg>